<mxfile host="app.diagrams.net" modified="2023-09-07T13:53:18.686Z" agent="Mozilla/5.0 (Windows NT 10.0; Win64; x64) AppleWebKit/537.36 (KHTML, like Gecko) Chrome/116.0.0.0 Safari/537.36" etag="C6_loONmws3kStR3px3T" version="21.6.9" type="device">
  <diagram name="Page-1" id="73WMNvoPmXamw4iD0fSU">
    <mxGraphModel dx="1105" dy="604" grid="1" gridSize="10" guides="1" tooltips="1" connect="1" arrows="1" fold="1" page="1" pageScale="1" pageWidth="850" pageHeight="1100" math="0" shadow="0">
      <root>
        <mxCell id="0" />
        <mxCell id="1" parent="0" />
        <mxCell id="c9rfuLgIeEUTo8gCYPGb-2" value="AWS Cloud" style="points=[[0,0],[0.25,0],[0.5,0],[0.75,0],[1,0],[1,0.25],[1,0.5],[1,0.75],[1,1],[0.75,1],[0.5,1],[0.25,1],[0,1],[0,0.75],[0,0.5],[0,0.25]];outlineConnect=0;gradientColor=none;html=1;whiteSpace=wrap;fontSize=12;fontStyle=0;container=1;pointerEvents=0;collapsible=0;recursiveResize=0;shape=mxgraph.aws4.group;grIcon=mxgraph.aws4.group_aws_cloud_alt;strokeColor=#232F3E;fillColor=none;verticalAlign=top;align=left;spacingLeft=30;fontColor=#232F3E;dashed=0;" vertex="1" parent="1">
          <mxGeometry x="160" y="160" width="520" height="520" as="geometry" />
        </mxCell>
        <mxCell id="c9rfuLgIeEUTo8gCYPGb-3" value="VPC" style="points=[[0,0],[0.25,0],[0.5,0],[0.75,0],[1,0],[1,0.25],[1,0.5],[1,0.75],[1,1],[0.75,1],[0.5,1],[0.25,1],[0,1],[0,0.75],[0,0.5],[0,0.25]];outlineConnect=0;gradientColor=none;html=1;whiteSpace=wrap;fontSize=12;fontStyle=0;container=1;pointerEvents=0;collapsible=0;recursiveResize=0;shape=mxgraph.aws4.group;grIcon=mxgraph.aws4.group_vpc;strokeColor=#248814;fillColor=none;verticalAlign=top;align=left;spacingLeft=30;fontColor=#AAB7B8;dashed=0;" vertex="1" parent="c9rfuLgIeEUTo8gCYPGb-2">
          <mxGeometry x="40" y="40" width="440" height="440" as="geometry" />
        </mxCell>
        <mxCell id="c9rfuLgIeEUTo8gCYPGb-4" value="Elastic Beanstalk container" style="points=[[0,0],[0.25,0],[0.5,0],[0.75,0],[1,0],[1,0.25],[1,0.5],[1,0.75],[1,1],[0.75,1],[0.5,1],[0.25,1],[0,1],[0,0.75],[0,0.5],[0,0.25]];outlineConnect=0;gradientColor=none;html=1;whiteSpace=wrap;fontSize=12;fontStyle=0;container=1;pointerEvents=0;collapsible=0;recursiveResize=0;shape=mxgraph.aws4.group;grIcon=mxgraph.aws4.group_elastic_beanstalk;strokeColor=#D86613;fillColor=none;verticalAlign=top;align=left;spacingLeft=30;fontColor=#D86613;dashed=0;" vertex="1" parent="c9rfuLgIeEUTo8gCYPGb-3">
          <mxGeometry x="40" y="40" width="360" height="360" as="geometry" />
        </mxCell>
        <mxCell id="c9rfuLgIeEUTo8gCYPGb-17" value="Availability Zone" style="fillColor=none;strokeColor=#147EBA;dashed=1;verticalAlign=top;fontStyle=0;fontColor=#147EBA;whiteSpace=wrap;html=1;" vertex="1" parent="c9rfuLgIeEUTo8gCYPGb-4">
          <mxGeometry x="40" y="40" width="280" height="280" as="geometry" />
        </mxCell>
        <mxCell id="c9rfuLgIeEUTo8gCYPGb-5" value="Public subnet" style="points=[[0,0],[0.25,0],[0.5,0],[0.75,0],[1,0],[1,0.25],[1,0.5],[1,0.75],[1,1],[0.75,1],[0.5,1],[0.25,1],[0,1],[0,0.75],[0,0.5],[0,0.25]];outlineConnect=0;gradientColor=none;html=1;whiteSpace=wrap;fontSize=12;fontStyle=0;container=1;pointerEvents=0;collapsible=0;recursiveResize=0;shape=mxgraph.aws4.group;grIcon=mxgraph.aws4.group_security_group;grStroke=0;strokeColor=#248814;fillColor=#E9F3E6;verticalAlign=top;align=left;spacingLeft=30;fontColor=#248814;dashed=0;" vertex="1" parent="c9rfuLgIeEUTo8gCYPGb-4">
          <mxGeometry x="80" y="80" width="200" height="200" as="geometry" />
        </mxCell>
        <mxCell id="c9rfuLgIeEUTo8gCYPGb-6" value="&lt;b&gt;EC2 Instance&lt;/b&gt;" style="outlineConnect=0;dashed=0;verticalLabelPosition=bottom;verticalAlign=top;align=center;html=1;shape=mxgraph.aws3.ec2;fillColor=#F58534;gradientColor=none;" vertex="1" parent="c9rfuLgIeEUTo8gCYPGb-5">
          <mxGeometry x="61.75" y="53.5" width="76.5" height="93" as="geometry" />
        </mxCell>
        <mxCell id="c9rfuLgIeEUTo8gCYPGb-10" style="edgeStyle=orthogonalEdgeStyle;rounded=0;orthogonalLoop=1;jettySize=auto;html=1;" edge="1" parent="1" source="c9rfuLgIeEUTo8gCYPGb-1" target="c9rfuLgIeEUTo8gCYPGb-9">
          <mxGeometry relative="1" as="geometry" />
        </mxCell>
        <mxCell id="c9rfuLgIeEUTo8gCYPGb-1" value="&lt;b&gt;User&lt;/b&gt;" style="points=[[0.35,0,0],[0.98,0.51,0],[1,0.71,0],[0.67,1,0],[0,0.795,0],[0,0.65,0]];verticalLabelPosition=bottom;sketch=0;html=1;verticalAlign=top;aspect=fixed;align=center;pointerEvents=1;shape=mxgraph.cisco19.user;fillColor=#005073;strokeColor=none;" vertex="1" parent="1">
          <mxGeometry x="200" y="70" width="60" height="60" as="geometry" />
        </mxCell>
        <mxCell id="c9rfuLgIeEUTo8gCYPGb-15" style="edgeStyle=orthogonalEdgeStyle;rounded=0;orthogonalLoop=1;jettySize=auto;html=1;entryX=1;entryY=0.5;entryDx=0;entryDy=0;fillColor=#f8cecc;strokeColor=#b85450;" edge="1" parent="1" source="c9rfuLgIeEUTo8gCYPGb-7" target="c9rfuLgIeEUTo8gCYPGb-4">
          <mxGeometry relative="1" as="geometry">
            <Array as="points">
              <mxPoint x="730" y="299" />
              <mxPoint x="730" y="420" />
            </Array>
          </mxGeometry>
        </mxCell>
        <mxCell id="c9rfuLgIeEUTo8gCYPGb-16" value="&lt;b&gt;App deployment&lt;/b&gt;" style="edgeLabel;html=1;align=center;verticalAlign=middle;resizable=0;points=[];" vertex="1" connectable="0" parent="c9rfuLgIeEUTo8gCYPGb-15">
          <mxGeometry x="-0.6779" y="3" relative="1" as="geometry">
            <mxPoint y="58" as="offset" />
          </mxGeometry>
        </mxCell>
        <mxCell id="c9rfuLgIeEUTo8gCYPGb-7" value="&lt;b&gt;S3 Bucket&lt;/b&gt;" style="sketch=0;outlineConnect=0;fontColor=#232F3E;gradientColor=none;fillColor=#3F8624;strokeColor=none;dashed=0;verticalLabelPosition=bottom;verticalAlign=top;align=center;html=1;fontSize=12;fontStyle=0;aspect=fixed;pointerEvents=1;shape=mxgraph.aws4.s3_object_lock;" vertex="1" parent="1">
          <mxGeometry x="760" y="260" width="71" height="78" as="geometry" />
        </mxCell>
        <mxCell id="c9rfuLgIeEUTo8gCYPGb-13" style="edgeStyle=orthogonalEdgeStyle;rounded=0;orthogonalLoop=1;jettySize=auto;html=1;" edge="1" parent="1" source="c9rfuLgIeEUTo8gCYPGb-9" target="c9rfuLgIeEUTo8gCYPGb-6">
          <mxGeometry relative="1" as="geometry" />
        </mxCell>
        <mxCell id="c9rfuLgIeEUTo8gCYPGb-9" value="&lt;b&gt;Browser&lt;/b&gt;" style="sketch=0;pointerEvents=1;shadow=0;dashed=0;html=1;strokeColor=none;fillColor=#434445;aspect=fixed;labelPosition=center;verticalLabelPosition=bottom;verticalAlign=top;align=center;outlineConnect=0;shape=mxgraph.vvd.web_browser;" vertex="1" parent="1">
          <mxGeometry x="395" y="82.25" width="50" height="35.5" as="geometry" />
        </mxCell>
        <mxCell id="c9rfuLgIeEUTo8gCYPGb-22" style="edgeStyle=orthogonalEdgeStyle;rounded=0;orthogonalLoop=1;jettySize=auto;html=1;fillColor=#f8cecc;strokeColor=#b85450;" edge="1" parent="1" source="c9rfuLgIeEUTo8gCYPGb-21" target="c9rfuLgIeEUTo8gCYPGb-7">
          <mxGeometry relative="1" as="geometry" />
        </mxCell>
        <mxCell id="c9rfuLgIeEUTo8gCYPGb-21" value="" style="image;sketch=0;aspect=fixed;html=1;points=[];align=center;fontSize=12;image=img/lib/mscae/Docker.svg;" vertex="1" parent="1">
          <mxGeometry x="770.5" y="110" width="50" height="41" as="geometry" />
        </mxCell>
      </root>
    </mxGraphModel>
  </diagram>
</mxfile>
